<svg width="483" height="422" fill="none" xmlns="http://www.w3.org/2000/svg"><g opacity=".75"><path d="M90.62 292.903S2.406 308.079.059 343.42C-3.763 400.972 178.996 421 241.5 421c62.504 0 245.263-20.028 241.441-77.58-2.347-35.341-90.561-50.517-90.561-50.517-88.795-15.872-216.396-16.86-301.76 0z" fill="#4D4D4D"/><path d="M94.389 292.18S8.379 307.124 6.09 341.927C2.364 398.6 180.557 418.323 241.5 418.323c60.943 0 239.136-19.723 235.41-76.396-2.289-34.803-88.299-49.747-88.299-49.747-86.577-15.63-210.991-16.602-294.222 0z" fill="#E6E6E6"/><g filter="url(#filter0_f_6_197)"><path d="M88.356 356.229c4.992 6.498 14.686 10.055 20.841 16.064 3.665 3.579 6.493 13.18 12.065 14.994 8.469 2.756 86.886 17.022 91.041 14.993 8.528-4.163-24.009-54.5-29.616-59.974-7.616-7.436-18.93-12.057-26.325-19.277-11.814-11.535-27.927-16.311-39.487-21.954-8.428 8.167-41.64 38.072-28.519 55.154z" fill="#fff"/></g><g filter="url(#filter1_f_6_197)"><path d="M193.185 376.02c10.996 38.059 66.18 31.058 100.364 31.058 18.428 0 40.057 2.313 57.038-3.213 26.65-8.674 59.642-18.909 82.814-35.877 14.239-10.427 38.701-34.884 7.678-44.98-10.728-3.492-70.151 35.852-83.363 42.302-6.134 2.995-17.847-12.193-22.486-14.457-5.823-2.843-17.326-.536-24.131-.536L193.185 376.02z" fill="#878787"/></g><g filter="url(#filter2_f_6_197)"><path d="M176.38 366.938c14.726 30.112 141.464 31.778 129.706 0H176.38z" fill="#333"/></g><path d="M176.38 366.938c10.039 28.854 121.955 25.943 129.706 0H176.38z" fill="#4D4D4D"/><path d="M177.477 366.938c9.87 24.346 119.893 21.89 127.512 0H177.477z" fill="#999"/><path d="M396.058 184.598c9.731 72.8-22.904 158.627-90.255 183.89-27.019 10.134-100.316 11.469-129.375 0-66.899-26.405-99.991-111.09-90.26-183.89 29.013-38.141 258.309-32.747 309.89 0z" fill="#4D4D4D"/><path d="M395.515 184.341c9.697 72.288-22.823 157.512-89.939 182.597-26.924 10.064-99.965 11.389-128.921 0-66.665-26.219-99.641-110.309-89.944-182.597 28.924-48.969 257.422-48.193 308.804 0z" fill="#CCC"/><path d="M92.744 187.018c51.232 24.585 226.532 37.085 296.156 0 18.304 72.767-299.215 65.87-296.156 0z" fill="#fff"/><path d="M92.744 187.018c54.181-54.108 263.25-31.593 296.156 0 7.296 68.504-293.225 57.702-296.156 0z" fill="gray"/><path d="M232.087 168.213c-78.956 2.065-112.605 18.039-135.54 28.917 32.774 45.603 267.212 53.336 290.602 1.093-42.712-21.67-98.541-31.488-155.062-30.01z" fill="#483131"/><path d="M230.99 170.89c-78.956 2.065-104.927 16.969-134.442 26.24 32.773 45.603 267.211 53.336 290.601 1.093-39.969-17.922-99.638-28.811-156.159-27.333z" fill="#845B36"/><g filter="url(#filter3_f_6_197)"><path d="M392.638 230.692c-6.158 58.634-37.836 115.508-90.533 136.234-28.957 11.389-101.987 10.064-128.911 0-24.546-9.174-44.464-26.385-59.382-48.073 75.841 53.639 221.314 45.233 278.826-88.161z" fill="#999"/></g><g filter="url(#filter4_f_6_197)"><path d="M297.379 362.838c-156.991 41.33-207.236-64.474-211.741-161.301C105 331.072 196.843 370.128 297.379 362.838z" fill="#fff"/></g><path d="M86.71 184.341c-36.202-26.068-55.899-.633-60.896 12.903-10.78 29.203 16.087 82.876 88.867 118.824 5.132-3.161-3.948-20.847-14.259-27.845-63.871-26.187-67.737-100.493-48.827-102.688 18.024-2.093 32.627 18.011 35.116 42.715 3.605-2.275 6.803-35.267 0-43.909z" fill="#4D4D4D"/><path d="M86.71 184.341c-35.653-21.248-53.705.438-58.702 13.974-10.781 29.203 17.184 81.805 86.673 117.753 1.842-.483-2.303-14.421-14.259-27.845-65.517-42.251-64.447-94.603-45.537-96.798 18.025-2.092 21.11 15.334 31.826 36.825 3.318-2.088 2.102-24.889 0-43.909z" fill="#999"/><path d="M31.838 312.558C17.87 320.074 6.88 329.773 6.083 341.912c-3.727 56.674 174.483 76.4 235.426 76.4 56.576 0 214.175-16.992 233.492-64.771-32.318 44.765-177.607 63.728-281.88 53.573-114.533-11.154-210.84-41.333-161.283-94.556z" fill="#fff"/><path d="M155.883 195.184c12.185.489 23.898 2.008 36.128 2.008 7.392 0 15.387-2.015 22.486-3.748 11.247-2.746 39.596-1.607 51.553-1.607 12.625 0-7.987 6.469-11.517 6.962-21.596 3.012-44.176-1.4-65.264 3.748-3.225.787-16.488 3.647-14.808 8.568 2.777 8.134 26.34 4.283 32.906 4.283 42.869 0 89.54 9.836 128.335-9.103 4.758-2.323 18.135-1.679 20.84-6.961 2.801-5.468-23.439-.255-25.776-4.819-2.042-3.988 9.588-3.268 7.396-5.409-4.306-4.203-26.509-4.642-32.624-5.836-32.537-6.354-84.313-10.846-117.915-4.284-7.838 1.531-64.754 9.714-68.554 17.135-3.389 6.617 15.371 6.426 19.195 6.426 3.786 0 14.539.525 16.453-3.213 1.022-1.996-9.761-1.482-9.323-2.075 1.976-2.678 7.96-2.176 10.489-2.075z" fill="#674A30"/><path d="M98.957 196.335c-.805.262-1.6.541-2.41.795 32.774 45.603 267.212 53.336 290.602 1.093-.055-.024-.115-.041-.17-.066-.091.038-.178.062-.271.1-73.848 42.892-228.596 29.218-287.92-1.591.059-.109.11-.222.17-.331z" fill="#674A30"/><path d="M266.836 180.2c-16.929-.329-33.638.486-48.999 1.822-40.964 3.564-72.413 10.967-72.413 10.967a2.196 2.196 0 00-1.471.916 2.083 2.083 0 00.078 2.464c.182.233.411.427.674.569a2.215 2.215 0 001.737.159s31.138-7.299 71.768-10.834c40.373-3.512 90.054-3.146 127.452 11.596-2.271.863-6.533 1.871-12.42 2.816-12.873 2.066-32.578 3.946-53.749 5.4-21.172 1.455-43.842 2.503-62.708 2.883-17.855.359-31.926.012-38.141-.895.799-.237 1.424-.444 2.443-.695 7.429-1.833 20.237-3.888 34.917-5.732 29.36-3.689 66.449-6.533 83.916-5.533a2.228 2.228 0 001.576-.527c.214-.185.389-.409.514-.659a2.085 2.085 0 00-.322-2.34 2.188 2.188 0 00-1.496-.715c-18.291-1.047-55.196 1.856-84.731 5.566-14.767 1.856-27.604 3.902-35.426 5.831-1.955.483-3.594.971-4.92 1.458-1.325.488-2.312.827-3.223 1.756-.456.464-.978 1.31-.849 2.319.13 1.009.782 1.655 1.324 2.021 1.082.733 2.211 1.016 3.868 1.325 6.709 1.252 21.695 1.442 40.652 1.061 18.956-.382 41.666-1.423 62.911-2.883 21.245-1.46 41.003-3.322 54.157-5.433 6.577-1.056 11.384-2.112 14.354-3.446.742-.333 1.385-.679 1.968-1.193.583-.513 1.23-1.325 1.221-2.418-.008-1.094-.665-1.971-1.289-2.485-.624-.514-1.338-.858-2.172-1.193-24.19-9.695-52.987-13.4-81.201-13.948z" fill="#CA9666"/><g filter="url(#filter5_f_6_197)"><path d="M45.39 252.033c-16.755-16.798-20.448-39.863-13.512-55.721 6.854-15.67 24.086-24.311 49.348-11.436-22.03-7.537-38.29-.355-44.415 15.174-5.627 14.264-2.519 35.927 8.579 51.983z" fill="#fff"/></g><path opacity=".111" d="M148.219 52.555c-18.13 62.691 20.265 69.981 0 118.876 8.133-41.674-29.191-69.231 0-118.876zm46.377-30.139c-23.444 81.061 26.203 90.487 0 153.71 10.516-53.886-37.746-89.519 0-153.71zM240.538 0c-25.76 100.231 28.792 111.886 0 190.06 11.555-66.629-41.476-110.688 0-190.06zm90.104 52.555c-18.13 62.691 20.265 69.981 0 118.876 8.133-41.674-29.191-69.231 0-118.876zm-44.835-30.139c-23.443 81.061 26.204 90.487 0 153.71 10.517-53.886-37.745-89.519 0-153.71z" fill="#674A30"/></g><defs><filter id="filter0_f_6_197" x="65.809" y="281.559" width="167.425" height="140.433" filterUnits="userSpaceOnUse" color-interpolation-filters="sRGB"><feFlood flood-opacity="0" result="BackgroundImageFix"/><feBlend in="SourceGraphic" in2="BackgroundImageFix" result="shape"/><feGaussianBlur stdDeviation="9.758" result="effect1_foregroundBlur_6_197"/></filter><filter id="filter1_f_6_197" x="182.605" y="312.209" width="284.055" height="105.955" filterUnits="userSpaceOnUse" color-interpolation-filters="sRGB"><feFlood flood-opacity="0" result="BackgroundImageFix"/><feBlend in="SourceGraphic" in2="BackgroundImageFix" result="shape"/><feGaussianBlur stdDeviation="5.29" result="effect1_foregroundBlur_6_197"/></filter><filter id="filter2_f_6_197" x="171.714" y="362.272" width="139.807" height="32.545" filterUnits="userSpaceOnUse" color-interpolation-filters="sRGB"><feFlood flood-opacity="0" result="BackgroundImageFix"/><feBlend in="SourceGraphic" in2="BackgroundImageFix" result="shape"/><feGaussianBlur stdDeviation="2.333" result="effect1_foregroundBlur_6_197"/></filter><filter id="filter3_f_6_197" x="108.076" y="224.956" width="290.297" height="155.758" filterUnits="userSpaceOnUse" color-interpolation-filters="sRGB"><feFlood flood-opacity="0" result="BackgroundImageFix"/><feBlend in="SourceGraphic" in2="BackgroundImageFix" result="shape"/><feGaussianBlur stdDeviation="2.868" result="effect1_foregroundBlur_6_197"/></filter><filter id="filter4_f_6_197" x="75.898" y="191.798" width="231.22" height="189.977" filterUnits="userSpaceOnUse" color-interpolation-filters="sRGB"><feFlood flood-opacity="0" result="BackgroundImageFix"/><feBlend in="SourceGraphic" in2="BackgroundImageFix" result="shape"/><feGaussianBlur stdDeviation="4.87" result="effect1_foregroundBlur_6_197"/></filter><filter id="filter5_f_6_197" x="26.201" y="176.273" width="57.389" height="78.123" filterUnits="userSpaceOnUse" color-interpolation-filters="sRGB"><feFlood flood-opacity="0" result="BackgroundImageFix"/><feBlend in="SourceGraphic" in2="BackgroundImageFix" result="shape"/><feGaussianBlur stdDeviation="1.182" result="effect1_foregroundBlur_6_197"/></filter></defs></svg>