<svg width="24" height="24" fill="none" xmlns="http://www.w3.org/2000/svg"><circle cx="12" cy="12" r="12" fill="#D9D9D9" fill-opacity=".1"/><path d="M7.873 15V9.182h3.488v.625H8.577v1.966H11.1v.625H8.577V15h-.704zm4.695 0V9.182h.67v2.147h.057c.05-.075.117-.172.205-.29a1.2 1.2 0 01.38-.317c.167-.095.392-.143.676-.143.368 0 .692.092.972.276.28.184.5.444.656.781.157.338.236.735.236 1.194 0 .462-.079.862-.236 1.201a1.86 1.86 0 01-.653.784 1.71 1.71 0 01-.963.276c-.28 0-.505-.046-.673-.14a1.249 1.249 0 01-.39-.32 4.27 4.27 0 01-.21-.302h-.08V15h-.647zm.659-2.182c0 .33.048.62.145.872.096.25.238.446.423.588.186.14.413.21.682.21a1.1 1.1 0 00.702-.221c.189-.15.331-.35.426-.602.096-.254.145-.536.145-.847 0-.307-.048-.583-.142-.83a1.281 1.281 0 00-.424-.587c-.187-.146-.423-.22-.707-.22-.273 0-.502.07-.688.208a1.245 1.245 0 00-.42.574c-.095.244-.142.53-.142.855z" fill="#fff"/></svg>