<svg width="24" height="24" fill="none" xmlns="http://www.w3.org/2000/svg"><circle cx="12" cy="12" r="12" fill="#D9D9D9" fill-opacity=".1"/><path d="M10.413 9.182V15h-.705V9.182h.705zm3.083 7.545c-.324 0-.602-.041-.835-.125a1.772 1.772 0 01-.582-.324 1.773 1.773 0 01-.367-.426l.534-.375c.06.08.137.17.23.273.093.104.22.194.38.27.164.078.377.116.64.116.352 0 .643-.085.872-.255.23-.17.344-.438.344-.802v-.886h-.057c-.05.08-.12.178-.21.296a1.23 1.23 0 01-.386.31c-.167.088-.393.133-.676.133a1.82 1.82 0 01-.95-.25 1.76 1.76 0 01-.661-.728c-.161-.318-.242-.704-.242-1.159 0-.447.079-.836.236-1.167a1.82 1.82 0 01.656-.773 1.73 1.73 0 01.972-.276c.284 0 .51.048.676.143.168.092.297.199.386.318.091.117.161.214.21.29h.069v-.694h.648v4.489c0 .375-.086.68-.256.915-.169.236-.396.41-.682.52-.284.111-.6.167-.949.167zm-.023-2.398c.27 0 .497-.061.682-.184.186-.123.327-.3.424-.531a2.16 2.16 0 00.144-.83c0-.314-.047-.592-.142-.832a1.249 1.249 0 00-.42-.566 1.13 1.13 0 00-.688-.204c-.284 0-.52.072-.71.216a1.315 1.315 0 00-.423.58 2.24 2.24 0 00-.14.806c0 .303.048.571.143.804.096.231.238.413.426.546.19.13.424.195.704.195z" fill="#fff"/></svg>