<svg width="181" height="75" fill="none" xmlns="http://www.w3.org/2000/svg"><path d="M9.141 17.46C10.771 13.586 20.65 3.256 22.28 1.884c.671-.645 1.438-.969 2.398-.888C38.293-5.137 43.664 18.833 37.431 24.16c-1.727 1.614-3.645 1.937-5.946 1.695-.96-.242-1.918-.404-2.878-.565-.479-.08-.671-.242-.671-.646.097-2.017.288-4.116.385-6.133.096-.969.191-2.1.286-3.067.193-1.857.289-3.874.384-5.73v-.645c1.055-6.215-5.08-1.777-5.274-.486-.19.647-.672 1.454-1.341 2.1-1.248.967-2.015 2.178-2.687 3.388-.862 1.776-1.917 3.39-2.684 5.085-1.15 2.26-1.918 4.439-2.301 6.78a49.536 49.536 0 00-.863 5.246c-.193 1.614-.767 3.47-.96 5.165-.095 1.372.095 2.582.193 3.954.095.646.19 1.13.286 1.857 1.534 9.04 5.178 4.035 6.617.807.672-1.453.96-2.825 1.439-4.197.288-.646.288-1.13-.095-1.775-.767-1.291.095-2.584 1.917-3.229 1.918-.646 3.93-.807 5.85-1.049 2.109-.242 2.973.807 3.164 2.18 0 .645-.096 1.452-.479 2.259-2.59 5.004-5.371 12.913-8.823 15.9-.383.16-.671.645-.96.968-.67.968-1.534 1.37-2.684 1.21-1.342-.162-2.397-.162-3.835 0-1.534.16-3.069-.162-4.507-.646-.672-.08-1.248-.08-1.823-.08-.479.08-.96 0-1.438-.162-2.013-.484-3.547-1.614-4.89-2.986-.672-.565-1.246-1.13-1.344-2.017-.095-.646-.479-1.211-.67-1.695-.769-1.937-.864-3.793-.769-5.65 0-1.21.289-2.26.577-3.551.576-1.937 1.055-3.793 1.727-5.81.67-1.615 1.534-3.471 2.108-5.085.48-.97.864-1.937 1.343-2.825h-.383c-.096.162-.288.404-.48.726-.192.323-.48.565-.67.807 1.533-2.905 3.067-5.89 4.89-8.797zm39.305 29.585c-.096.404-.096.888-.096 1.292-.19.161 0 .241.096.403.193.404.576.807 1.055.968.098 0 .098 0 .193-.08s.288-.161.383-.242c1.63-1.453 2.78-3.31 3.74-5.165.48-.646.672-1.372.958-1.937-2.204-.807-3.259-.081-4.507 1.291-1.053 1.291-1.246 2.018-1.822 3.47zm8.535-15.737a21.114 21.114 0 00-.67-2.583c-.288-.807-.672-1.452-1.343-1.937-.384-.323-.672-.727-1.246-.968-.576-.404-1.055-.727-1.727-1.05-1.15-.806-3.26.889-3.932 1.453-2.59 3.067-.096 7.264 2.303 9.443 2.78 4.6 7.863 2.986 6.712-2.421.19-.646.19-1.373-.097-1.937zm-11.41 3.228c-1.055-1.453-1.535-3.228-1.823-5.085-.288-1.372.191-2.663 1.056-3.954.095-.161.286-.323.67-.404.768-.564 1.726-1.05 2.877-1.613.864-.485 2.015-.566 3.068-.405.769 0 2.877 1.615 3.356 1.938.576.403 1.152.887 1.822 1.21.864.645 1.439 1.372 1.92 2.421.286.646.479 1.212.862 1.776.288.727.384 1.534.575 2.34.097.727.097 1.291.288 1.937.095.081.095.081.095.242-.286-1.29.097.566 0 .807-.095.969.193 1.857-.095 2.745-.288.484.288 1.048 1.055 1.048 4.7-.241 6.522.323 11.124-.322.479-.162.957-.403 1.534-.646.193-.08.479-.241.671-.323.191.243.096.566 0 .727-.288.403.672.564.289.887-2.878 2.583-11.7 2.502-15.152 2.502h-.288c-.289 0-.575.081-.575.243 0 .16-.097.242-.192.404-.288 1.37-1.151 2.663-1.823 4.034-.479.97-1.15 1.695-1.822 2.422-.383.484-.767 1.05-1.341 1.372-.193.08-.383.242-.672.403-.193.081-.479.243-.576.484-.767.727-1.63 1.292-2.685 1.534-.19 0-.672.161-.96.323-1.34.322-2.684.242-3.93.08-1.727-.16-2.877-1.21-3.835-2.582-.288-.646-.576-1.453-.865-2.18-.19-1.452-.286-2.904-.095-4.438.193-1.534.767-2.986 1.63-4.439.864-1.776 2.11-3.31 3.548-4.762.289-.08.289-.242.384-.484 0-.081 0-.161-.095-.242" fill="#fff"/><path d="M78.665 19.33c-.191.485-2.108 2.906-2.302 3.068-.095.403-.287.968-.766 1.21 0-.323.095-.484.095-.484.865-1.614 2.301-3.067 3.452-4.6-.287-.323-.096-.323-.096-.323 1.632-1.776 3.068-3.229 4.316-4.358.19-.162.767-.323.767-.727.289-.242.289-.242.863-.807-.767.484-.958.565-1.44.968-.478.323-.957.485-1.34 1.13-2.399 2.26-4.604 4.843-6.522 8.152-.288 1.049-.574 1.371-.862 2.098-.289.566-.096.807-.289 1.291v.243c.577-.807.863-1.615 1.15-2.26.577-.888 2.685-3.632 3.07-4.359l-.096-.241zm-4.314 5.246c-.96 1.453-1.92 3.39-2.59 5.327v.485c.767-1.13 1.246-2.422 1.823-3.471.478-.726.767-1.533 1.053-2.503 0 0-.19.082-.286.162m-2.878 25.826a69.506 69.506 0 00-.862 2.34c-.193.486-.288.97-.288 1.534-.193.807-.481 1.534-.577 2.26-.19.646-.383 1.292-.671 1.937.193.565-.19.807-.286 1.291-.098.323-.288.646-.384 1.05 0 .727-.288 1.29-.48 2.098-.096.404-.191.969-.384 1.453-.191.565-.48 1.21-.48 1.775 0 .807-.095 1.614-.095 2.26 0 .242.096.404.191.646.96 1.614 1.632-.485 1.822-.888.577-1.13.193-.565.767-1.775.289-.97.672-2.1 1.055-3.067.193-.646.384-1.453.48-2.098.383-1.938.671-4.117.96-6.215.478-2.502.383-2.099.671-4.681.286-4.843-.865-1.857-1.15-.646-.098.242-.193.485-.289.726m16.686-22.84c.767-1.452 1.63-2.905 2.397-4.196.862-1.856 1.438-3.551 1.727-5.73.19-1.614-.767-4.681-2.301-1.857-.384.969-.96 1.938-1.344 2.906-.672 1.534-1.343 3.148-2.11 4.843-.191.645-.574 1.372-.863 2.179-.671 2.017-1.629 3.793-2.493 5.488-.48 1.13-.958 2.42-1.63 3.47-1.344 2.663-.576 1.533-1.822 4.277-.48.968-1.15 2.502.288 2.825 1.15-.162 4.507 1.21 5.37 1.05 1.438 0 2.781.726 3.932.403.574-.161 1.055-.242 1.439-.323 2.589-.727 0 .242 2.396-.969 1.15 0 3.26-3.873 4.507-3.793 4.221-1.856 1.439 2.34-2.397 4.843-.383.242-1.438.726-1.822.968-9.59 2.906-17.836-2.744-17.262.565.192 1.856.192 3.632.288 5.245 0 .405-.096.727 0 1.05-.096.969-.096 1.695-.096 2.745a4.235 4.235 0 00-.287 1.452c-.191.645-.48 1.21-.48 1.856-.095.403-.288.887-.192 1.453-.191.565-.384 1.05-.479 1.775h-.095c.095-.162.095-.242.19-.323 0-.161-.19-.161-.19-.08-.096 0-.193.161-.289.161-.095.08-.095.242-.095.323 0 .484 0 .888-.288 1.291-.19.646-.48 1.372-.575 1.937-.48 1.21-.864 2.34-1.536 3.148v.565c0 .645-.383 1.05-.767 1.372l-.286.484c-.671 1.372-1.248 2.34-2.015 3.551-.288.646-.767.969-1.34 1.049-.386-.08-.865.081-1.153.081-.191 0-.191.242-.48.162-.288.08-.574.08-.766.16-.672.243-1.439 0-2.013-.403-.288-.162-.865-.646-1.248-.969-.67-.564-1.246-1.533-1.246-2.582-.193-.322-.288-.645-.48-.968-.287-.97-.382-2.099-.382-3.229s-.098-2.501.095-3.954c0 0 .095-.08.095-.161-.288-1.454.193-2.825.479-4.278.576-2.018 1.153-4.116 1.822-6.053.097-.565.097-.969.288-1.453.096-.484.193-.887.384-1.21 0-.484.288-.888.479-1.372 0-.161.097-.404.192-.646.384-.968.672-1.776.863-2.663.672-2.018.864-2.34 2.206-5.165.095-.404.478-.646.478-1.05.386-1.614 5.946-12.348 9.974-18.885.193-.242-2.301 2.26-2.108 2.018.286-.485 3.068-3.632 3.451-4.116 1.534-2.098 2.206-2.664 3.069-2.825.671-.565 2.205-1.775 3.067-2.34 1.153-.889 3.74-1.534 4.988-1.13.384.08.767.241 1.15.161 1.44.162 2.495.887 3.452 1.614 0 .243.384.404.672.727.288 1.048 1.246 2.098.862 3.55.577 1.373.288 2.341-.286 3.713-1.343 2.744-2.877 5.246-4.987 7.667-.191.484-.672.807-1.246 1.05-.672.322-1.344.484-2.11.887.192-.969.576-1.694.959-2.34" fill="#fff"/><path d="M98.819 18.92c-.19.484-2.108 2.906-2.301 3.067-.095.403-.288.969-.767 1.21 0-.323.095-.484.095-.484.865-1.614 2.301-3.066 3.452-4.6-.286-.323-.096-.323-.096-.323 1.632-1.776 3.068-3.228 4.316-4.358.191-.162.767-.323.767-.727.289-.242.289-.242.863-.807-.767.485-.958.566-1.439.969-.478.322-.958.484-1.341 1.13-2.398 2.26-4.604 4.842-6.522 8.151-.288 1.049-.574 1.372-.862 2.099-.288.565-.095.807-.288 1.29v.243c.576-.807.862-1.615 1.15-2.26.577-.887 2.685-3.632 3.068-4.358l-.095-.242zm-4.314 5.245c-.96 1.454-1.92 3.39-2.59 5.327v.485c.768-1.13 1.247-2.422 1.823-3.471.479-.726.767-1.533 1.053-2.502 0 0-.191.081-.286.161m-2.877 25.826a69.156 69.156 0 00-.863 2.341 4.01 4.01 0 00-.288 1.533c-.193.807-.481 1.534-.576 2.26-.191.646-.384 1.292-.672 1.937.193.566-.19.807-.286 1.291-.098.323-.288.646-.384 1.05 0 .727-.288 1.29-.48 2.098-.096.404-.191.97-.384 1.453-.19.565-.479 1.21-.479 1.776 0 .806-.095 1.614-.095 2.259 0 .242.095.404.19.646.96 1.614 1.632-.485 1.822-.888.577-1.13.194-.565.768-1.775.288-.97.671-2.099 1.055-3.067.193-.646.383-1.453.479-2.098.383-1.938.671-4.117.96-6.215.478-2.502.383-2.099.67-4.68.287-4.843-.864-1.858-1.15-.646-.097.241-.192.484-.288.725m16.686-22.839c.767-1.453 1.63-2.905 2.397-4.197.862-1.856 1.439-3.551 1.727-5.73.19-1.614-.767-4.681-2.301-1.857-.384.969-.96 1.938-1.344 2.906-.671 1.534-1.343 3.148-2.11 4.843-.191.645-.574 1.372-.863 2.179-.671 2.018-1.629 3.793-2.493 5.488-.479 1.13-.958 2.42-1.63 3.47-1.343 2.663-.576 1.534-1.822 4.277-.479.969-1.15 2.502.288 2.825 1.151-.162 4.507 1.21 5.369 1.05 1.439 0 2.782.726 3.933.403.574-.161 1.055-.242 1.438-.322 2.59-.727 0 .241 2.397-.97 1.151 0 3.261-3.873 4.507-3.793 4.221-1.856 1.438 2.341-2.397 4.843-.383.242-1.438.727-1.822.968-9.59 2.906-17.836-2.743-17.262.565.193 1.857.193 3.632.288 5.246 0 .404-.095.727 0 1.05-.095.968-.095 1.694-.095 2.744a4.227 4.227 0 00-.288 1.452c-.191.646-.48 1.211-.48 1.856-.095.404-.287.888-.192 1.453-.19.565-.384 1.05-.479 1.775h-.095c.095-.161.095-.242.19-.323 0-.16-.19-.16-.19-.08-.095 0-.193.161-.288.161-.096.08-.096.242-.096.323 0 .485 0 .889-.288 1.291-.19.646-.479 1.373-.574 1.937-.481 1.21-.865 2.34-1.537 3.148v.565c0 .646-.383 1.05-.766 1.372l-.286.484c-.672 1.372-1.248 2.34-2.016 3.552-.288.645-.766.968-1.34 1.048-.386-.08-.865.081-1.154.081-.19 0-.19.243-.478.162-.288.08-.575.08-.767.161-.672.243-1.439 0-2.013-.404-.288-.161-.865-.646-1.248-.968-.67-.565-1.246-1.534-1.246-2.582-.193-.323-.288-.646-.479-.969-.288-.969-.383-2.099-.383-3.228 0-1.13-.098-2.502.095-3.955 0 0 .095-.08.095-.161-.288-1.453.193-2.825.48-4.278.575-2.018 1.152-4.116 1.821-6.052.098-.566.098-.97.288-1.454.096-.484.193-.887.384-1.21 0-.484.288-.888.479-1.372 0-.161.097-.404.193-.645.383-.969.671-1.776.862-2.664.672-2.017.865-2.34 2.206-5.165.095-.404.479-.646.479-1.05.386-1.613 5.945-12.347 9.973-18.885.193-.242-2.3 2.26-2.108 2.018.286-.484 3.068-3.632 3.451-4.116 1.534-2.098 2.206-2.663 3.068-2.825.672-.565 2.206-1.775 3.069-2.34 1.152-.888 3.739-1.534 4.987-1.13.384.08.768.242 1.151.161 1.439.162 2.494.888 3.452 1.614 0 .243.383.404.671.727.288 1.049 1.246 2.098.863 3.55.576 1.373.288 2.341-.286 3.713-1.344 2.745-2.878 5.246-4.988 7.667-.191.484-.672.807-1.246 1.05-.672.322-1.343.484-2.111.887.193-.969.577-1.694.96-2.34" fill="#fff"/><path d="M159.122 41.928c.67 0 1.245-.161 1.629-.646.574-.645 1.246-1.21 1.727-2.017.479-.887 1.053-1.775 1.534-2.744l.574-1.13.865-2.824.479-2.18v-.726c0-.242-.288-.323-.577-.161l-.19.161a4.773 4.773 0 00-1.632 2.18c-.383 1.049-.862 2.017-1.534 2.904-.672 1.05-1.439 2.018-2.205 2.906-.863 1.05-1.534 2.26-2.206 3.39-.096.161-.191.403-.096.645.577.08 1.055.242 1.632.242zm-24.647-11.137c-.958.242-1.822.565-2.589 1.21l-1.341.969a2.7 2.7 0 00-.767.645c-.672.646-1.248 1.292-1.823 1.938l-1.534 1.937-.192.322c.192.082.288.162.383.162 1.343.161 2.59.08 3.933-.162.671-.161 1.245-.484 1.629-1.05 1.343-1.532 2.111-3.227 2.685-5.083 0-.243.097-.566-.096-.888-.095 0-.19-.08-.288 0zm-5.752 10.734c-.289-.081-.672-.162-.96-.404-.767-.484-1.63-.968-2.206-1.695 0-.08-.095-.08-.286-.161-.098.08-.193.08-.193.161-.672.888-1.343 1.695-1.629 2.744-.098.08-.098.162-.098.242-.286.808-.19 1.534.481 2.18.958.969 1.918 1.856 3.164 2.501.479.404 1.055.646 1.631.969.767.565 1.725.646 2.685.485 1.918-.243 3.74-.647 5.369-1.534 1.248-.726 2.494-1.291 3.74-2.017.96-.566 1.822-1.212 2.686-1.776l4.41-3.228c0-.162.097-.323.097-.485.096-1.613.958-2.986 1.823-4.358 1.82-3.229 4.602-5.972 7.765-8.313.767-.645 1.632-1.13 2.59-1.533.575-.323 1.247-.323 1.919-.162.383.162.958.243 1.437.404.383.162.767.403 1.15.646.77.484 1.536.968 2.304 1.372.383.242.669.484.766.807.096.323.288.484.575.645.383.162.671.404.959.565.672.485 1.056 1.05 1.439 1.615.191.484.191.887.191 1.372-.191 1.371-.479 2.743-1.151 4.034-.19.404-.383.807-.671 1.13l-.67 1.13-1.92 3.148c-.286.484-.957.968-1.341 1.453-.672.888-1.727 1.29-2.782 1.695-.672.241-1.246.241-1.917 0l-.958-.243c-.577 0-1.153-.241-1.632-.484-.288-.242-.574-.403-.957-.403-.098 0-.193.08-.193.08-.096.646-.384 1.211-.384 1.857-.095 1.533.479 2.905 1.823 3.954.959.645 2.013 1.05 3.26.808.958-.163 1.823-.324 2.685-.566.672-.161 1.246-.484 1.822-.807 2.589-1.453 5.179-2.905 7.671-4.439.864-.484 1.631-1.13 2.303-1.855.669-.647 1.438-1.292 2.108-2.018 1.055-1.05 1.917-2.099 2.589-3.31.288-.323.384-.726.576-1.13.288 0 .191.162.191.243v.484c-.191.566-.286 1.21-.383 1.776a4.576 4.576 0 01-.575 1.453c-.481.645-.959 1.29-1.534 1.936-.288.323-.576.646-.672 1.05a6.324 6.324 0 01-1.631 2.098c-.286.242-.574.484-.669.807 0 .08-.193.242-.289.323-.862.565-1.726 1.21-2.782 1.694-.574.243-1.246.646-1.822.969-.862.565-1.82 1.05-2.875 1.292-1.15.323-2.301.887-3.356 1.371-2.302 1.13-4.7 1.776-7.385 1.938-1.245.08-2.589-.081-3.932-.323-.286-.081-.575-.243-.863-.404-1.343-.565-2.3-1.452-3.068-2.502a11.296 11.296 0 01-1.726-4.116c-.096-.323-.191-.645-.191-.968-.098-.161-.098-.404-.098-.565.193-.566 0-1.05 0-1.614.098-.484 0-.97.098-1.534l-.576.484c-.289.242-.577.484-.767.807-.48.404-.863.807-1.439 1.13-.575.404-1.151.888-1.727 1.21-.767.566-1.534 1.05-2.301 1.534a22.346 22.346 0 01-4.698 2.421c-.864.243-1.727.565-2.589.646-.96.161-1.822.161-2.782.242-.288.08-.574.08-.862.08-.767.163-1.63.082-2.399 0-2.396-.403-4.602-1.048-6.615-2.259-1.727-1.13-3.165-2.502-4.123-4.197-.193-.403-.481-.725-.576-1.048-.577-1.211-.768-2.422-.672-3.713.193-2.34 1.055-4.52 2.589-6.537 1.534-2.18 3.356-4.036 5.755-5.65.862-.645 1.822-1.05 2.78-1.452.479-.162.96-.162 1.439-.323.287 0 .576-.081.766-.161.577-.243 1.056-.162 1.534.08l1.918 1.21c.384.162.672.404 1.055.404.384.08.672.242.96.484l1.439 1.21.669.727c0 .242.288.403.481.484 1.151 1.05 1.918 2.26 2.206 3.713.191.887 0 1.775-.288 2.664-.288.968-.767 2.017-1.246 2.905a4.377 4.377 0 01-2.494 2.178.783.783 0 01-.383.162c-.577.081-1.151.242-1.727.404a6.19 6.19 0 01-1.725 0l-.097-.081c-.384-.404-.384-.404-.768 0l-1.245-.242z" fill="#F5F5F5"/></svg>